name ./resultDataOpenSim/trcMotMarkerGrf/sub10/grf-02-03.mot
datacolumns 19
datarows 27
range 0.47600000 0.58000000
endheader

                time	     ground_force_vx	     ground_force_vy	     ground_force_vz	     ground_force_px	     ground_force_py	     ground_force_pz	   l_ground_force_vx	   l_ground_force_vy	   l_ground_force_vz	   l_ground_force_px	   l_ground_force_py	   l_ground_force_pz	     ground_torque_x	     ground_torque_y	     ground_torque_z	   l_ground_torque_x	   l_ground_torque_y	   l_ground_torque_z	
          0.47600000	         15.30695317	        365.18036562	        -25.19445356	         -0.76250382	          0.00000000	          0.04670188	          0.00000000	          0.00000000	          0.00000000	          0.00000000	          0.00000000	          0.00000000	          0.00000000	          2.82874264	          0.00000000	          0.00000000	          0.00000000	          0.00000000	
          0.48000000	         19.79214800	        371.78387387	        -25.86120667	         -0.76323725	          0.00000000	          0.04676511	          0.00000000	          0.00000000	          0.00000000	          0.00000000	          0.00000000	          0.00000000	          0.00000000	          3.01745878	          0.00000000	          0.00000000	          0.00000000	          0.00000000	
          0.48400000	         24.80474084	        379.76749114	        -26.58865299	         -0.76401593	          0.00000000	          0.04682233	          0.00000000	          0.00000000	          0.00000000	          0.00000000	          0.00000000	          0.00000000	          0.00000000	          3.18489513	          0.00000000	          0.00000000	          0.00000000	          0.00000000	
          0.48800000	         29.90704077	        389.04959380	        -27.35793717	         -0.76471068	          0.00000000	          0.04685817	          0.00000000	          0.00000000	          0.00000000	          0.00000000	          0.00000000	          0.00000000	          0.00000000	          3.33214464	          0.00000000	          0.00000000	          0.00000000	          0.00000000	
          0.49200000	         34.67365057	        399.47570970	        -28.14269092	         -0.76520626	          0.00000000	          0.04685682	          0.00000000	          0.00000000	          0.00000000	          0.00000000	          0.00000000	          0.00000000	          0.00000000	          3.46181880	          0.00000000	          0.00000000	          0.00000000	          0.00000000	
          0.49600000	         38.79631596	        410.81990985	        -28.92142808	         -0.76542386	          0.00000000	          0.04681815	          0.00000000	          0.00000000	          0.00000000	          0.00000000	          0.00000000	          0.00000000	          0.00000000	          3.57753449	          0.00000000	          0.00000000	          0.00000000	          0.00000000	
          0.50000000	         42.14656680	        422.79566111	        -29.68931091	         -0.76531373	          0.00000000	          0.04675932	          0.00000000	          0.00000000	          0.00000000	          0.00000000	          0.00000000	          0.00000000	          0.00000000	          3.68320689	          0.00000000	          0.00000000	          0.00000000	          0.00000000	
          0.50400000	         44.78389483	        435.09381895	        -30.46089612	         -0.76484239	          0.00000000	          0.04670546	          0.00000000	          0.00000000	          0.00000000	          0.00000000	          0.00000000	          0.00000000	          0.00000000	          3.78211039	          0.00000000	          0.00000000	          0.00000000	          0.00000000	
          0.50800000	         46.91558936	        447.44639582	        -31.26271407	         -0.76402483	          0.00000000	          0.04667716	          0.00000000	          0.00000000	          0.00000000	          0.00000000	          0.00000000	          0.00000000	          0.00000000	          3.87599987	          0.00000000	          0.00000000	          0.00000000	          0.00000000	
          0.51200000	         48.82421022	        459.68040943	        -32.12172848	         -0.76291080	          0.00000000	          0.04668199	          0.00000000	          0.00000000	          0.00000000	          0.00000000	          0.00000000	          0.00000000	          0.00000000	          3.96473673	          0.00000000	          0.00000000	          0.00000000	          0.00000000	
          0.51600000	         50.78369986	        471.72563000	        -33.05900707	         -0.76158638	          0.00000000	          0.04671512	          0.00000000	          0.00000000	          0.00000000	          0.00000000	          0.00000000	          0.00000000	          0.00000000	          4.04667556	          0.00000000	          0.00000000	          0.00000000	          0.00000000	
          0.52000000	         52.98510864	        483.58305671	        -34.09278242	         -0.76012945	          0.00000000	          0.04677028	          0.00000000	          0.00000000	          0.00000000	          0.00000000	          0.00000000	          0.00000000	          0.00000000	          4.11966139	          0.00000000	          0.00000000	          0.00000000	          0.00000000	
          0.52400000	         55.48929596	        495.30028287	        -35.24331154	         -0.75856540	          0.00000000	          0.04684426	          0.00000000	          0.00000000	          0.00000000	          0.00000000	          0.00000000	          0.00000000	          0.00000000	          4.18214617	          0.00000000	          0.00000000	          0.00000000	          0.00000000	
          0.52800000	         58.21993280	        506.97376439	        -36.53001172	         -0.75687907	          0.00000000	          0.04693649	          0.00000000	          0.00000000	          0.00000000	          0.00000000	          0.00000000	          0.00000000	          0.00000000	          4.23389345	          0.00000000	          0.00000000	          0.00000000	          0.00000000	
          0.53200000	         60.99799756	        518.74342495	        -37.96281454	         -0.75504738	          0.00000000	          0.04704628	          0.00000000	          0.00000000	          0.00000000	          0.00000000	          0.00000000	          0.00000000	          0.00000000	          4.27602845	          0.00000000	          0.00000000	          0.00000000	          0.00000000	
          0.53600000	         63.60417905	        530.75461063	        -39.53539363	         -0.75306565	          0.00000000	          0.04716868	          0.00000000	          0.00000000	          0.00000000	          0.00000000	          0.00000000	          0.00000000	          0.00000000	          4.31058147	          0.00000000	          0.00000000	          0.00000000	          0.00000000	
          0.54000000	         65.85072590	        543.11597357	        -41.22388770	         -0.75095175	          0.00000000	          0.04729278	          0.00000000	          0.00000000	          0.00000000	          0.00000000	          0.00000000	          0.00000000	          0.00000000	          4.33987155	          0.00000000	          0.00000000	          0.00000000	          0.00000000	
          0.54400000	         67.64477625	        555.89325024	        -42.99044133	         -0.74873606	          0.00000000	          0.04740577	          0.00000000	          0.00000000	          0.00000000	          0.00000000	          0.00000000	          0.00000000	          0.00000000	          4.36598466	          0.00000000	          0.00000000	          0.00000000	          0.00000000	
          0.54800000	         69.02510553	        569.13579419	        -44.78890640	         -0.74646006	          0.00000000	          0.04749751	          0.00000000	          0.00000000	          0.00000000	          0.00000000	          0.00000000	          0.00000000	          0.00000000	          4.39035660	          0.00000000	          0.00000000	          0.00000000	          0.00000000	
          0.55200000	         70.15876899	        582.89771813	        -46.57168708	         -0.74417818	          0.00000000	          0.04756161	          0.00000000	          0.00000000	          0.00000000	          0.00000000	          0.00000000	          0.00000000	          0.00000000	          4.41332168	          0.00000000	          0.00000000	          0.00000000	          0.00000000	
          0.55600000	         71.29932796	        597.23498970	        -48.29822911	         -0.74195062	          0.00000000	          0.04759177	          0.00000000	          0.00000000	          0.00000000	          0.00000000	          0.00000000	          0.00000000	          0.00000000	          4.43358779	          0.00000000	          0.00000000	          0.00000000	          0.00000000	
          0.56000000	         72.72554872	        612.19372725	        -49.94306287	         -0.73983090	          0.00000000	          0.04758254	          0.00000000	          0.00000000	          0.00000000	          0.00000000	          0.00000000	          0.00000000	          0.00000000	          4.44786360	          0.00000000	          0.00000000	          0.00000000	          0.00000000	
          0.56400000	         74.68354048	        627.80276975	        -51.49949666	         -0.73786159	          0.00000000	          0.04753120	          0.00000000	          0.00000000	          0.00000000	          0.00000000	          0.00000000	          0.00000000	          0.00000000	          4.45103694	          0.00000000	          0.00000000	          0.00000000	          0.00000000	
          0.56800000	         77.34541787	        644.06469980	        -52.97607902	         -0.73607652	          0.00000000	          0.04743460	          0.00000000	          0.00000000	          0.00000000	          0.00000000	          0.00000000	          0.00000000	          0.00000000	          4.43718883	          0.00000000	          0.00000000	          0.00000000	          0.00000000	
          0.57200000	         80.78700613	        660.94211136	        -54.38473520	         -0.73449802	          0.00000000	          0.04728803	          0.00000000	          0.00000000	          0.00000000	          0.00000000	          0.00000000	          0.00000000	          0.00000000	          4.40135187	          0.00000000	          0.00000000	          0.00000000	          0.00000000	
          0.57600000	         84.98655844	        678.35443481	        -55.72086924	         -0.73313103	          0.00000000	          0.04708329	          0.00000000	          0.00000000	          0.00000000	          0.00000000	          0.00000000	          0.00000000	          0.00000000	          4.34150413	          0.00000000	          0.00000000	          0.00000000	          0.00000000	
          0.58000000	         89.84793827	        696.19371986	        -56.93835222	         -0.73195934	          0.00000000	          0.04680861	          0.00000000	          0.00000000	          0.00000000	          0.00000000	          0.00000000	          0.00000000	          0.00000000	          4.26008836	          0.00000000	          0.00000000	          0.00000000	          0.00000000	
